<svg width="36" height="36" viewBox="0 0 36 36" fill="none" xmlns="http://www.w3.org/2000/svg">
<path fill-rule="evenodd" clip-rule="evenodd" d="M0 35.9994H12.8967C13.1412 26.8852 17.9712 20.917 25.5443 19.003C10.353 17.8295 2.13707 29.5206 0 35.9994Z" fill="#4EFDEA"/>
<path fill-rule="evenodd" clip-rule="evenodd" d="M25.6477 31.1909C22.2617 26.4015 25.5539 20.9409 26.5748 20.0234C18.9192 22.7188 17.8825 33.2626 18.5073 35.9541L32.6815 36.0002C29.2032 34.7098 27.0391 33.078 25.7594 31.3493C25.6477 31.1909 25.6477 31.1909 25.6477 31.1909Z" fill="#006BF1"/>
<path fill-rule="evenodd" clip-rule="evenodd" d="M12.1392 0V10.3777C19.5023 12.9861 40.0898 20.4039 26.8834 31.1907L26.9951 31.3491C31.1245 29.7019 33.8024 27.4795 35.0356 25.1832C40.0043 15.9291 24.7763 6.06434 12.1392 0Z" fill="#7782F1"/>
</svg>
